<svg xmlns="http://www.w3.org/2000/svg" viewBox="0 0 520 440" width="520" height="440" role="img" aria-label="skills radar chart">
<defs>
<linearGradient id="gskillsdark" x1="0" y1="0" x2="1" y2="1"><stop offset="0" stop-color="#8E2DE2"/><stop offset="1" stop-color="#FF2E97"/></linearGradient>
<style>text{font-family:'JetBrains Mono','Fira Code',Consolas,Menlo,'DejaVu Sans Mono',monospace}</style>
</defs>
<rect x="1" y="1" width="518" height="438" rx="12" fill="#0d1117" stroke="#233047" stroke-width="2"/>
<text x="260.0" y="38" text-anchor="middle" fill="#FF2E97" style="font-size:17px;font-weight:600">skills</text>
<polygon points="260.0,203.5 289.9,220.8 289.9,255.2 260.0,272.5 230.1,255.2 230.1,220.8" fill="none" stroke="#30363d" stroke-width="1"/>
<polygon points="260.0,169.0 319.8,203.5 319.8,272.5 260.0,307.0 200.2,272.5 200.2,203.5" fill="none" stroke="#30363d" stroke-width="1"/>
<polygon points="260.0,134.5 349.6,186.2 349.6,289.8 260.0,341.5 170.4,289.8 170.4,186.2" fill="none" stroke="#30363d" stroke-width="1"/>
<polygon points="260.0,100.0 379.5,169.0 379.5,307.0 260.0,376.0 140.5,307.0 140.5,169.0" fill="none" stroke="#30363d" stroke-width="1"/>
<line x1="260.0" y1="238" x2="260.0" y2="100.0" stroke="#30363d" stroke-width="1"/>
<text x="260.0" y="82.0" text-anchor="middle" fill="#c9d1d9" style="font-size:14px">Frontend</text>
<line x1="260.0" y1="238" x2="379.5" y2="169.0" stroke="#30363d" stroke-width="1"/>
<text x="393.4" y="165.0" text-anchor="start" fill="#c9d1d9" style="font-size:14px">Backend</text>
<line x1="260.0" y1="238" x2="379.5" y2="307.0" stroke="#30363d" stroke-width="1"/>
<text x="393.4" y="319.0" text-anchor="start" fill="#c9d1d9" style="font-size:14px">Databases</text>
<line x1="260.0" y1="238" x2="260.0" y2="376.0" stroke="#30363d" stroke-width="1"/>
<text x="260.0" y="406.0" text-anchor="middle" fill="#c9d1d9" style="font-size:14px">DSA</text>
<line x1="260.0" y1="238" x2="140.5" y2="307.0" stroke="#30363d" stroke-width="1"/>
<text x="126.6" y="319.0" text-anchor="end" fill="#c9d1d9" style="font-size:14px">Deploy</text>
<line x1="260.0" y1="238" x2="140.5" y2="169.0" stroke="#30363d" stroke-width="1"/>
<text x="126.6" y="159.0" text-anchor="end" fill="#c9d1d9" style="font-size:14px">System Design</text>
<polygon points="260.0,127.6 349.6,186.2 343.7,286.3 260.0,327.7 176.3,286.3 206.2,206.9" fill="url(#gskillsdark)" fill-opacity="0.28" stroke="url(#gskillsdark)" stroke-width="2.5" stroke-linejoin="round"/>
<circle cx="260.0" cy="127.6" r="4.5" fill="#FF2E97" stroke="#0d1117" stroke-width="1.5"/>
<circle cx="349.6" cy="186.2" r="4.5" fill="#FF2E97" stroke="#0d1117" stroke-width="1.5"/>
<circle cx="343.7" cy="286.3" r="4.5" fill="#FF2E97" stroke="#0d1117" stroke-width="1.5"/>
<circle cx="260.0" cy="327.7" r="4.5" fill="#FF2E97" stroke="#0d1117" stroke-width="1.5"/>
<circle cx="176.3" cy="286.3" r="4.5" fill="#FF2E97" stroke="#0d1117" stroke-width="1.5"/>
<circle cx="206.2" cy="206.9" r="4.5" fill="#FF2E97" stroke="#0d1117" stroke-width="1.5"/>
</svg>